<?xml version="1.0" encoding="utf-8" standalone="no"?>
<!DOCTYPE svg PUBLIC "-//W3C//DTD SVG 1.1//EN" "http://www.w3.org/Graphics/SVG/1.1/DTD/svg11.dtd">
<svg width="3600px" height="3600px" version="1.1" xmlns="http://www.w3.org/2000/svg" xmlns:xlink="http://www.w3.org/1999/xlink">
<g id="bg">
<rect x="0" y="0" width="3600px" height="3600px" style="fill:rgb(255,255,255);"/>
</g>
<g id="ideograms">
<path d="M1800.000,260.000 A1540.000,1540.000 40.000 0,1 1857.822,261.086 L1860.826,181.142 A1620.000,1620.000 0.000 0,0 1800.000,180.000 Z" style="stroke-width:2.0;stroke:rgb(82,82,82);stroke-linecap:round;fill:rgb(240,240,240);" />
<text x="1832.3" y="105.3" font-size="32.5px" font-family="CMUSansSerif-DemiCondensed" style="text-anchor:start;fill:rgb(0,0,0);" transform="rotate(271.1,1832.3,105.3)" ></text>
<path d="M1800.000,260.000 A1540.000,1540.000 40.000 0,1 1857.822,261.086 L1860.826,181.142 A1620.000,1620.000 0.000 0,0 1800.000,180.000 Z" style="stroke-width:2.0;stroke:rgb(82,82,82);stroke-linecap:round;fill:none;" />
<path d="M1874.430,261.800 A1540.000,1540.000 40.000 0,1 2275.578,335.273 L2300.283,259.183 A1620.000,1620.000 0.000 0,0 1878.296,181.893 Z" style="stroke-width:2.0;stroke:rgb(82,82,82);stroke-linecap:round;fill:rgb(240,240,240);" />
<text x="2105.9" y="132.8" font-size="32.5px" font-family="CMUSansSerif-DemiCondensed" style="text-anchor:start;fill:rgb(0,0,0);" transform="rotate(280.4,2105.9,132.8)" ></text>
<path d="M1874.430,261.800 A1540.000,1540.000 40.000 0,1 2275.578,335.273 L2300.283,259.183 A1620.000,1620.000 0.000 0,0 1878.296,181.893 Z" style="stroke-width:2.0;stroke:rgb(82,82,82);stroke-linecap:round;fill:none;" />
<path d="M2291.360,340.491 A1540.000,1540.000 40.000 0,1 2628.857,502.080 L2671.915,434.656 A1620.000,1620.000 0.000 0,0 2316.885,264.673 Z" style="stroke-width:2.0;stroke:rgb(82,82,82);stroke-linecap:round;fill:rgb(240,240,240);" />
<text x="2532.4" y="271.4" font-size="32.5px" font-family="CMUSansSerif-DemiCondensed" style="text-anchor:start;fill:rgb(0,0,0);" transform="rotate(295.6,2532.4,271.4)" ></text>
<path d="M2291.360,340.491 A1540.000,1540.000 40.000 0,1 2628.857,502.080 L2671.915,434.656 A1620.000,1620.000 0.000 0,0 2316.885,264.673 Z" style="stroke-width:2.0;stroke:rgb(82,82,82);stroke-linecap:round;fill:none;" />
<path d="M2642.819,511.103 A1540.000,1540.000 40.000 0,1 2836.968,661.450 L2890.837,602.304 A1620.000,1620.000 0.000 0,0 2686.602,444.147 Z" style="stroke-width:2.0;stroke:rgb(82,82,82);stroke-linecap:round;fill:rgb(240,240,240);" />
<text x="2838.2" y="460.2" font-size="32.5px" font-family="CMUSansSerif-DemiCondensed" style="text-anchor:start;fill:rgb(0,0,0);" transform="rotate(307.8,2838.2,460.2)" ></text>
<path d="M2642.819,511.103 A1540.000,1540.000 40.000 0,1 2836.968,661.450 L2890.837,602.304 A1620.000,1620.000 0.000 0,0 2686.602,444.147 Z" style="stroke-width:2.0;stroke:rgb(82,82,82);stroke-linecap:round;fill:none;" />
<path d="M2849.197,672.709 A1540.000,1540.000 40.000 0,1 3023.014,864.138 L3086.547,815.522 A1620.000,1620.000 0.000 0,0 2903.701,614.149 Z" style="stroke-width:2.0;stroke:rgb(82,82,82);stroke-linecap:round;fill:rgb(240,240,240);" />
<text x="3055.2" y="660.9" font-size="32.5px" font-family="CMUSansSerif-DemiCondensed" style="text-anchor:start;fill:rgb(0,0,0);" transform="rotate(317.8,3055.2,660.9)" ></text>
<path d="M2849.197,672.709 A1540.000,1540.000 40.000 0,1 3023.014,864.138 L3086.547,815.522 A1620.000,1620.000 0.000 0,0 2903.701,614.149 Z" style="stroke-width:2.0;stroke:rgb(82,82,82);stroke-linecap:round;fill:none;" />
<path d="M3033.044,877.394 A1540.000,1540.000 40.000 0,1 3246.200,1270.750 L3321.327,1243.256 A1620.000,1620.000 0.000 0,0 3097.099,829.467 Z" style="stroke-width:2.0;stroke:rgb(82,82,82);stroke-linecap:round;fill:rgb(240,240,240);" />
<text x="3290.5" y="992.9" font-size="32.5px" font-family="CMUSansSerif-DemiCondensed" style="text-anchor:start;fill:rgb(0,0,0);" transform="rotate(331.5,3290.5,992.9)" ></text>
<path d="M3033.044,877.394 A1540.000,1540.000 40.000 0,1 3246.200,1270.750 L3321.327,1243.256 A1620.000,1620.000 0.000 0,0 3097.099,829.467 Z" style="stroke-width:2.0;stroke:rgb(82,82,82);stroke-linecap:round;fill:none;" />
<path d="M3251.828,1286.391 A1540.000,1540.000 40.000 0,1 3330.214,1626.667 L3409.706,1617.663 A1620.000,1620.000 0.000 0,0 3327.248,1259.710 Z" style="stroke-width:2.0;stroke:rgb(82,82,82);stroke-linecap:round;fill:rgb(240,240,240);" />
<text x="3451.9" y="1420.0" font-size="32.5px" font-family="CMUSansSerif-DemiCondensed" style="text-anchor:start;fill:rgb(0,0,0);" transform="rotate(347.0,3451.9,1420.0)" ></text>
<path d="M3251.828,1286.391 A1540.000,1540.000 40.000 0,1 3330.214,1626.667 L3409.706,1617.663 A1620.000,1620.000 0.000 0,0 3327.248,1259.710 Z" style="stroke-width:2.0;stroke:rgb(82,82,82);stroke-linecap:round;fill:none;" />
<path d="M3331.996,1643.195 A1540.000,1540.000 40.000 0,1 3337.212,1892.618 L3417.068,1897.429 A1620.000,1620.000 0.000 0,0 3411.580,1635.049 Z" style="stroke-width:2.0;stroke:rgb(82,82,82);stroke-linecap:round;fill:rgb(240,240,240);" />
<text x="3494.6" y="1765.1" font-size="32.5px" font-family="CMUSansSerif-DemiCondensed" style="text-anchor:start;fill:rgb(0,0,0);" transform="rotate(358.8,3494.6,1765.1)" ></text>
<path d="M3331.996,1643.195 A1540.000,1540.000 40.000 0,1 3337.212,1892.618 L3417.068,1897.429 A1620.000,1620.000 0.000 0,0 3411.580,1635.049 Z" style="stroke-width:2.0;stroke:rgb(82,82,82);stroke-linecap:round;fill:none;" />
<path d="M3336.123,1909.205 A1540.000,1540.000 40.000 0,1 3312.108,2091.770 L3390.659,2106.927 A1620.000,1620.000 0.000 0,0 3415.922,1914.878 Z" style="stroke-width:2.0;stroke:rgb(82,82,82);stroke-linecap:round;fill:rgb(240,240,240);" />
<text x="3480.5" y="2021.6" font-size="32.5px" font-family="CMUSansSerif-DemiCondensed" style="text-anchor:start;fill:rgb(0,0,0);" transform="rotate(7.5,3480.5,2021.6)" ></text>
<path d="M3336.123,1909.205 A1540.000,1540.000 40.000 0,1 3312.108,2091.770 L3390.659,2106.927 A1620.000,1620.000 0.000 0,0 3415.922,1914.878 Z" style="stroke-width:2.0;stroke:rgb(82,82,82);stroke-linecap:round;fill:none;" />
<path d="M3308.870,2108.074 A1540.000,1540.000 40.000 0,1 3237.105,2353.471 L3311.760,2382.223 A1620.000,1620.000 0.000 0,0 3387.253,2124.078 Z" style="stroke-width:2.0;stroke:rgb(82,82,82);stroke-linecap:round;fill:rgb(240,240,240);" />
<text x="3426.7" y="2276.3" font-size="32.5px" font-family="CMUSansSerif-DemiCondensed" style="text-anchor:start;fill:rgb(0,0,0);" transform="rotate(16.3,3426.7,2276.3)" ></text>
<path d="M3308.870,2108.074 A1540.000,1540.000 40.000 0,1 3237.105,2353.471 L3311.760,2382.223 A1620.000,1620.000 0.000 0,0 3387.253,2124.078 Z" style="stroke-width:2.0;stroke:rgb(82,82,82);stroke-linecap:round;fill:none;" />
<path d="M3231.047,2368.951 A1540.000,1540.000 40.000 0,1 2954.273,2819.438 L3014.235,2872.396 A1620.000,1620.000 0.000 0,0 3305.387,2398.507 Z" style="stroke-width:2.0;stroke:rgb(82,82,82);stroke-linecap:round;fill:rgb(240,240,240);" />
<text x="3243.9" y="2687.7" font-size="32.5px" font-family="CMUSansSerif-DemiCondensed" style="text-anchor:start;fill:rgb(0,0,0);" transform="rotate(31.6,3243.9,2687.7)" ></text>
<path d="M3231.047,2368.951 A1540.000,1540.000 40.000 0,1 2954.273,2819.438 L3014.235,2872.396 A1620.000,1620.000 0.000 0,0 3305.387,2398.507 Z" style="stroke-width:2.0;stroke:rgb(82,82,82);stroke-linecap:round;fill:none;" />
<path d="M2943.202,2831.838 A1540.000,1540.000 40.000 0,1 2906.451,2871.152 L2963.929,2926.796 A1620.000,1620.000 0.000 0,0 3002.589,2885.440 Z" style="stroke-width:2.0;stroke:rgb(82,82,82);stroke-linecap:round;fill:rgb(240,240,240);" />
<text x="3037.9" y="2957.9" font-size="32.5px" font-family="CMUSansSerif-DemiCondensed" style="text-anchor:start;fill:rgb(0,0,0);" transform="rotate(43.1,3037.9,2957.9)" ></text>
<path d="M2943.202,2831.838 A1540.000,1540.000 40.000 0,1 2906.451,2871.152 L2963.929,2926.796 A1620.000,1620.000 0.000 0,0 3002.589,2885.440 Z" style="stroke-width:2.0;stroke:rgb(82,82,82);stroke-linecap:round;fill:none;" />
<path d="M2894.824,2883.032 A1540.000,1540.000 40.000 0,1 2748.085,3013.563 L2797.337,3076.605 A1620.000,1620.000 0.000 0,0 2951.698,2939.294 Z" style="stroke-width:2.0;stroke:rgb(82,82,82);stroke-linecap:round;fill:rgb(240,240,240);" />
<text x="2926.2" y="3066.8" font-size="32.5px" font-family="CMUSansSerif-DemiCondensed" style="text-anchor:start;fill:rgb(0,0,0);" transform="rotate(48.3,2926.2,3066.8)" ></text>
<path d="M2894.824,2883.032 A1540.000,1540.000 40.000 0,1 2748.085,3013.563 L2797.337,3076.605 A1620.000,1620.000 0.000 0,0 2951.698,2939.294 Z" style="stroke-width:2.0;stroke:rgb(82,82,82);stroke-linecap:round;fill:none;" />
<path d="M2734.931,3023.725 A1540.000,1540.000 40.000 0,1 2330.358,3245.794 L2357.909,3320.900 A1620.000,1620.000 0.000 0,0 2783.499,3087.296 Z" style="stroke-width:2.0;stroke:rgb(82,82,82);stroke-linecap:round;fill:rgb(240,240,240);" />
<text x="2615.2" y="3286.1" font-size="32.5px" font-family="CMUSansSerif-DemiCondensed" style="text-anchor:start;fill:rgb(0,0,0);" transform="rotate(61.2,2615.2,3286.1)" ></text>
<path d="M2734.931,3023.725 A1540.000,1540.000 40.000 0,1 2330.358,3245.794 L2357.909,3320.900 A1620.000,1620.000 0.000 0,0 2783.499,3087.296 Z" style="stroke-width:2.0;stroke:rgb(82,82,82);stroke-linecap:round;fill:none;" />
<path d="M2314.721,3251.434 A1540.000,1540.000 40.000 0,1 2189.528,3289.922 L2209.764,3367.321 A1620.000,1620.000 0.000 0,0 2341.460,3326.834 Z" style="stroke-width:2.0;stroke:rgb(82,82,82);stroke-linecap:round;fill:rgb(240,240,240);" />
<text x="2297.6" y="3420.3" font-size="32.5px" font-family="CMUSansSerif-DemiCondensed" style="text-anchor:start;fill:rgb(0,0,0);" transform="rotate(72.9,2297.6,3420.3)" ></text>
<path d="M2314.721,3251.434 A1540.000,1540.000 40.000 0,1 2189.528,3289.922 L2209.764,3367.321 A1620.000,1620.000 0.000 0,0 2341.460,3326.834 Z" style="stroke-width:2.0;stroke:rgb(82,82,82);stroke-linecap:round;fill:none;" />
<path d="M2173.424,3294.040 A1540.000,1540.000 40.000 0,1 1937.994,3333.805 L1945.163,3413.483 A1620.000,1620.000 0.000 0,0 2192.822,3371.652 Z" style="stroke-width:2.0;stroke:rgb(82,82,82);stroke-linecap:round;fill:rgb(240,240,240);" />
<text x="2081.8" y="3471.4" font-size="32.5px" font-family="CMUSansSerif-DemiCondensed" style="text-anchor:start;fill:rgb(0,0,0);" transform="rotate(80.4,2081.8,3471.4)" ></text>
<path d="M2173.424,3294.040 A1540.000,1540.000 40.000 0,1 1937.994,3333.805 L1945.163,3413.483 A1620.000,1620.000 0.000 0,0 2192.822,3371.652 Z" style="stroke-width:2.0;stroke:rgb(82,82,82);stroke-linecap:round;fill:none;" />
<path d="M1921.430,3335.205 A1540.000,1540.000 40.000 0,1 1848.927,3339.223 L1851.469,3419.182 A1620.000,1620.000 0.000 0,0 1927.738,3414.956 Z" style="stroke-width:2.0;stroke:rgb(82,82,82);stroke-linecap:round;fill:rgb(240,240,240);" />
<text x="1893.3" y="3492.4" font-size="32.5px" font-family="CMUSansSerif-DemiCondensed" style="text-anchor:start;fill:rgb(0,0,0);" transform="rotate(86.8,1893.3,3492.4)" ></text>
<path d="M1921.430,3335.205 A1540.000,1540.000 40.000 0,1 1848.927,3339.223 L1851.469,3419.182 A1620.000,1620.000 0.000 0,0 1927.738,3414.956 Z" style="stroke-width:2.0;stroke:rgb(82,82,82);stroke-linecap:round;fill:none;" />
<path d="M1784.311,3339.920 A1540.000,1540.000 40.000 0,1 1712.109,3337.490 L1707.543,3417.359 A1620.000,1620.000 0.000 0,0 1783.496,3419.916 Z" style="stroke-width:2.0;stroke:rgb(82,82,82);stroke-linecap:round;fill:rgb(255,0,0);" />
<text x="1756.0" y="3494.4" font-size="32.5px" font-family="CMUSansSerif-DemiCondensed" style="text-anchor:end;fill:rgb(0,0,0);" transform="rotate(-88.1,1756.0,3494.4)" >NC001133.9</text>
<path d="M1784.311,3339.920 A1540.000,1540.000 40.000 0,1 1712.109,3337.490 L1707.543,3417.359 A1620.000,1620.000 0.000 0,0 1783.496,3419.916 Z" style="stroke-width:2.0;stroke:rgb(82,82,82);stroke-linecap:round;fill:none;" />
<path d="M1647.686,3332.449 A1540.000,1540.000 40.000 0,1 1396.981,3286.330 L1376.045,3363.542 A1620.000,1620.000 0.000 0,0 1639.774,3412.057 Z" style="stroke-width:2.0;stroke:rgb(82,82,82);stroke-linecap:round;fill:rgb(255,94,0);" />
<text x="1506.1" y="3469.3" font-size="32.5px" font-family="CMUSansSerif-DemiCondensed" style="text-anchor:end;fill:rgb(0,0,0);" transform="rotate(-79.6,1506.1,3469.3)" >NC001134.8</text>
<path d="M1647.686,3332.449 A1540.000,1540.000 40.000 0,1 1396.981,3286.330 L1376.045,3363.542 A1620.000,1620.000 0.000 0,0 1639.774,3412.057 Z" style="stroke-width:2.0;stroke:rgb(82,82,82);stroke-linecap:round;fill:none;" />
<path d="M1334.982,3268.114 A1540.000,1540.000 40.000 0,1 1241.288,3235.075 L1212.264,3309.625 A1620.000,1620.000 0.000 0,0 1310.825,3344.380 Z" style="stroke-width:2.0;stroke:rgb(82,82,82);stroke-linecap:round;fill:rgb(255,191,0);" />
<text x="1248.6" y="3402.8" font-size="32.5px" font-family="CMUSansSerif-DemiCondensed" style="text-anchor:end;fill:rgb(0,0,0);" transform="rotate(-70.6,1248.6,3402.8)" >NC001135.5</text>
<path d="M1334.982,3268.114 A1540.000,1540.000 40.000 0,1 1241.288,3235.075 L1212.264,3309.625 A1620.000,1620.000 0.000 0,0 1310.825,3344.380 Z" style="stroke-width:2.0;stroke:rgb(82,82,82);stroke-linecap:round;fill:none;" />
<path d="M1181.577,3210.373 A1540.000,1540.000 40.000 0,1 778.284,2952.257 L725.208,3012.114 A1620.000,1620.000 0.000 0,0 1149.451,3283.639 Z" style="stroke-width:2.0;stroke:rgb(82,82,82);stroke-linecap:round;fill:rgb(225,255,0);" />
<text x="897.3" y="3234.6" font-size="32.5px" font-family="CMUSansSerif-DemiCondensed" style="text-anchor:end;fill:rgb(0,0,0);" transform="rotate(-57.4,897.3,3234.6)" >NC001136.10</text>
<path d="M1181.577,3210.373 A1540.000,1540.000 40.000 0,1 778.284,2952.257 L725.208,3012.114 A1620.000,1620.000 0.000 0,0 1149.451,3283.639 Z" style="stroke-width:2.0;stroke:rgb(82,82,82);stroke-linecap:round;fill:none;" />
<path d="M730.844,2908.380 A1540.000,1540.000 40.000 0,1 608.223,2775.330 L546.313,2825.996 A1620.000,1620.000 0.000 0,0 675.304,2965.958 Z" style="stroke-width:2.0;stroke:rgb(82,82,82);stroke-linecap:round;fill:rgb(128,255,0);" />
<text x="562.4" y="2958.2" font-size="32.5px" font-family="CMUSansSerif-DemiCondensed" style="text-anchor:end;fill:rgb(0,0,0);" transform="rotate(-42.7,562.4,2958.2)" >NC001137.3</text>
<path d="M730.844,2908.380 A1540.000,1540.000 40.000 0,1 608.223,2775.330 L546.313,2825.996 A1620.000,1620.000 0.000 0,0 675.304,2965.958 Z" style="stroke-width:2.0;stroke:rgb(82,82,82);stroke-linecap:round;fill:none;" />
<path d="M568.356,2724.474 A1540.000,1540.000 40.000 0,1 519.350,2655.299 L452.823,2699.730 A1620.000,1620.000 0.000 0,0 504.374,2772.499 Z" style="stroke-width:2.0;stroke:rgb(82,82,82);stroke-linecap:round;fill:rgb(34,255,0);" />
<text x="424.5" y="2790.4" font-size="32.5px" font-family="CMUSansSerif-DemiCondensed" style="text-anchor:end;fill:rgb(0,0,0);" transform="rotate(-35.3,424.5,2790.4)" >NC001138.5</text>
<path d="M568.356,2724.474 A1540.000,1540.000 40.000 0,1 519.350,2655.299 L452.823,2699.730 A1620.000,1620.000 0.000 0,0 504.374,2772.499 Z" style="stroke-width:2.0;stroke:rgb(82,82,82);stroke-linecap:round;fill:none;" />
<path d="M484.597,2600.821 A1540.000,1540.000 40.000 0,1 340.395,2291.074 L264.572,2316.585 A1620.000,1620.000 0.000 0,0 416.264,2642.422 Z" style="stroke-width:2.0;stroke:rgb(82,82,82);stroke-linecap:round;fill:rgb(0,255,64);" />
<text x="268.9" y="2527.1" font-size="32.5px" font-family="CMUSansSerif-DemiCondensed" style="text-anchor:end;fill:rgb(0,0,0);" transform="rotate(-25.0,268.9,2527.1)" >NC001139.9</text>
<path d="M484.597,2600.821 A1540.000,1540.000 40.000 0,1 340.395,2291.074 L264.572,2316.585 A1620.000,1620.000 0.000 0,0 416.264,2642.422 Z" style="stroke-width:2.0;stroke:rgb(82,82,82);stroke-linecap:round;fill:none;" />
<path d="M321.079,2229.409 A1540.000,1540.000 40.000 0,1 281.662,2057.389 L202.787,2070.760 A1620.000,1620.000 0.000 0,0 244.252,2251.716 Z" style="stroke-width:2.0;stroke:rgb(82,82,82);stroke-linecap:round;fill:rgb(0,255,157);" />
<text x="150.8" y="2191.2" font-size="32.5px" font-family="CMUSansSerif-DemiCondensed" style="text-anchor:end;fill:rgb(0,0,0);" transform="rotate(-12.9,150.8,2191.2)" >NC001140.6</text>
<path d="M321.079,2229.409 A1540.000,1540.000 40.000 0,1 281.662,2057.389 L202.787,2070.760 A1620.000,1620.000 0.000 0,0 244.252,2251.716 Z" style="stroke-width:2.0;stroke:rgb(82,82,82);stroke-linecap:round;fill:none;" />
<path d="M272.201,1993.465 A1540.000,1540.000 40.000 0,1 261.015,1855.915 L181.068,1858.819 A1620.000,1620.000 0.000 0,0 192.834,2003.516 Z" style="stroke-width:2.0;stroke:rgb(82,82,82);stroke-linecap:round;fill:rgb(0,255,255);" />
<text x="111.7" y="1950.3" font-size="32.5px" font-family="CMUSansSerif-DemiCondensed" style="text-anchor:end;fill:rgb(0,0,0);" transform="rotate(-4.6,111.7,1950.3)" >NC001141.2</text>
<path d="M272.201,1993.465 A1540.000,1540.000 40.000 0,1 261.015,1855.915 L181.068,1858.819 A1620.000,1620.000 0.000 0,0 192.834,2003.516 Z" style="stroke-width:2.0;stroke:rgb(82,82,82);stroke-linecap:round;fill:none;" />
<path d="M260.025,1791.303 A1540.000,1540.000 40.000 0,1 279.091,1558.266 L200.083,1545.708 A1620.000,1620.000 0.000 0,0 180.026,1790.851 Z" style="stroke-width:2.0;stroke:rgb(82,82,82);stroke-linecap:round;fill:rgb(0,162,255);" />
<text x="109.6" y="1674.7" font-size="32.5px" font-family="CMUSansSerif-DemiCondensed" style="text-anchor:end;fill:rgb(0,0,0);" transform="rotate(4.7,109.6,1674.7)" >NC001142.9</text>
<path d="M260.025,1791.303 A1540.000,1540.000 40.000 0,1 279.091,1558.266 L200.083,1545.708 A1620.000,1620.000 0.000 0,0 180.026,1790.851 Z" style="stroke-width:2.0;stroke:rgb(82,82,82);stroke-linecap:round;fill:none;" />
<path d="M290.571,1494.674 A1540.000,1540.000 40.000 0,1 345.849,1293.005 L270.308,1266.668 A1620.000,1620.000 0.000 0,0 212.159,1478.813 Z" style="stroke-width:2.0;stroke:rgb(82,82,82);stroke-linecap:round;fill:rgb(0,64,255);" />
<text x="161.9" y="1364.5" font-size="32.5px" font-family="CMUSansSerif-DemiCondensed" style="text-anchor:end;fill:rgb(0,0,0);" transform="rotate(15.3,161.9,1364.5)" >NC001143.9</text>
<path d="M290.571,1494.674 A1540.000,1540.000 40.000 0,1 345.849,1293.005 L270.308,1266.668 A1620.000,1620.000 0.000 0,0 212.159,1478.813 Z" style="stroke-width:2.0;stroke:rgb(82,82,82);stroke-linecap:round;fill:none;" />
<path d="M368.398,1232.447 A1540.000,1540.000 40.000 0,1 526.517,934.067 L460.362,889.083 A1620.000,1620.000 0.000 0,0 294.029,1202.964 Z" style="stroke-width:2.0;stroke:rgb(82,82,82);stroke-linecap:round;fill:rgb(30,0,255);" />
<text x="296.3" y="1017.8" font-size="32.5px" font-family="CMUSansSerif-DemiCondensed" style="text-anchor:end;fill:rgb(0,0,0);" transform="rotate(27.9,296.3,1017.8)" >NC001144.5</text>
<path d="M368.398,1232.447 A1540.000,1540.000 40.000 0,1 526.517,934.067 L460.362,889.083 A1620.000,1620.000 0.000 0,0 294.029,1202.964 Z" style="stroke-width:2.0;stroke:rgb(82,82,82);stroke-linecap:round;fill:none;" />
<path d="M563.965,881.405 A1540.000,1540.000 40.000 0,1 757.863,666.178 L703.726,607.279 A1620.000,1620.000 0.000 0,0 499.755,833.686 Z" style="stroke-width:2.0;stroke:rgb(82,82,82);stroke-linecap:round;fill:rgb(128,0,255);" />
<text x="532.0" y="675.2" font-size="32.5px" font-family="CMUSansSerif-DemiCondensed" style="text-anchor:end;fill:rgb(0,0,0);" transform="rotate(42.0,532.0,675.2)" >NC001145.3</text>
<path d="M563.965,881.405 A1540.000,1540.000 40.000 0,1 757.863,666.178 L703.726,607.279 A1620.000,1620.000 0.000 0,0 499.755,833.686 Z" style="stroke-width:2.0;stroke:rgb(82,82,82);stroke-linecap:round;fill:none;" />
<path d="M806.346,623.457 A1540.000,1540.000 40.000 0,1 1006.268,480.307 L965.035,411.752 A1620.000,1620.000 0.000 0,0 754.728,562.338 Z" style="stroke-width:2.0;stroke:rgb(82,82,82);stroke-linecap:round;fill:rgb(221,0,255);" />
<text x="802.7" y="429.5" font-size="32.5px" font-family="CMUSansSerif-DemiCondensed" style="text-anchor:end;fill:rgb(0,0,0);" transform="rotate(54.4,802.7,429.5)" >NC001146.8</text>
<path d="M806.346,623.457 A1540.000,1540.000 40.000 0,1 1006.268,480.307 L965.035,411.752 A1620.000,1620.000 0.000 0,0 754.728,562.338 Z" style="stroke-width:2.0;stroke:rgb(82,82,82);stroke-linecap:round;fill:none;" />
<path d="M1062.330,448.171 A1540.000,1540.000 40.000 0,1 1378.659,318.760 L1356.772,241.812 A1620.000,1620.000 0.000 0,0 1024.009,377.946 Z" style="stroke-width:2.0;stroke:rgb(82,82,82);stroke-linecap:round;fill:rgb(255,0,191);" />
<text x="1146.2" y="236.2" font-size="32.5px" font-family="CMUSansSerif-DemiCondensed" style="text-anchor:end;fill:rgb(0,0,0);" transform="rotate(67.8,1146.2,236.2)" >NC001147.6</text>
<path d="M1062.330,448.171 A1540.000,1540.000 40.000 0,1 1378.659,318.760 L1356.772,241.812 A1620.000,1620.000 0.000 0,0 1024.009,377.946 Z" style="stroke-width:2.0;stroke:rgb(82,82,82);stroke-linecap:round;fill:none;" />
<path d="M1441.171,302.388 A1540.000,1540.000 40.000 0,1 1735.395,261.356 L1732.039,181.426 A1620.000,1620.000 0.000 0,0 1422.530,224.590 Z" style="stroke-width:2.0;stroke:rgb(82,82,82);stroke-linecap:round;fill:rgb(255,0,98);" />
<text x="1553.0" y="123.1" font-size="32.5px" font-family="CMUSansSerif-DemiCondensed" style="text-anchor:end;fill:rgb(0,0,0);" transform="rotate(82.1,1553.0,123.1)" >NC001148.4</text>
<path d="M1441.171,302.388 A1540.000,1540.000 40.000 0,1 1735.395,261.356 L1732.039,181.426 A1620.000,1620.000 0.000 0,0 1422.530,224.590 Z" style="stroke-width:2.0;stroke:rgb(82,82,82);stroke-linecap:round;fill:none;" />
</g>
<g id="track_0">
<path d="M 1168.186,3187.522 A 1524.600,1524.600 0.00 0,1 835.0,2980.3 L 835.0,2980.3 868.5,2943.1 904.4,2910.4 942.3,2881.7 982.4,2856.7 1024.3,2835.1 1068.1,2816.5 1113.6,2800.6 1160.6,2787.2 1209.0,2776.0 1258.8,2766.6 1309.7,2759.0 1361.8,2753.0 1414.7,2748.2 1468.5,2744.7 1522.9,2742.2 1578.0,2740.7 1633.4,2740.1 1689.2,2740.2 1745.1,2741.1 1801.1,2742.7 1857.0,2745.0 1912.7,2748.0 1968.0,2751.9 2022.8,2756.5 2077.1,2762.1 2130.5,2768.7 2183.2,2776.4 2234.7,2785.5 2285.2,2795.9 2334.3,2808.1 2382.1,2822.1 2428.2,2838.2 2472.7,2856.6 2515.3,2877.7 2556.0,2901.7 2594.5,2928.9 2630.8,2959.7 2664.7,2994.4 2696.1,3033.5  A 1524.600,1524.600 0.00 0,1 2381.6,3209.3 L 2381.6,3209.3 2367.2,3179.0 2350.1,3151.6 2330.6,3127.0 2308.7,3104.8 2284.7,3084.9 2258.7,3067.1 2230.7,3051.3 2201.0,3037.2 2169.8,3024.7 2137.0,3013.8 2102.9,3004.2 2067.6,2995.9 2031.3,2988.7 1994.0,2982.6 1956.0,2977.5 1917.4,2973.4 1878.2,2970.1 1838.7,2967.8 1799.0,2966.2 1759.2,2965.5 1719.4,2965.6 1679.9,2966.6 1640.6,2968.4 1601.8,2971.2 1563.7,2974.9 1526.2,2979.6 1489.7,2985.5 1454.1,2992.6 1419.7,3000.9 1386.6,3010.7 1354.8,3022.0 1324.7,3035.0 1296.2,3049.8 1269.5,3066.7 1244.8,3085.7 1222.2,3107.1 1201.8,3131.0 1183.7,3157.8 1168.2,3187.5  Z" style="stroke-width: 2.0;  stroke: rgb(82,82,82); fill: rgb(225,255,0); opacity: 0.167;" />
<path d="M 1109.507,440.727 A 1524.600,1524.600 0.00 0,1 1327.5,350.5 L 1327.5,350.5 1338.3,378.4 1351.4,403.9 1366.6,426.9 1384.0,447.8 1403.3,466.7 1424.3,483.7 1447.1,498.9 1471.5,512.5 1497.3,524.6 1524.4,535.4 1552.7,544.8 1582.0,553.1 1612.3,560.2 1643.5,566.3 1675.3,571.4 1707.7,575.6 1740.5,578.8 1773.6,581.2 1807.0,582.7 1840.4,583.3 1873.8,583.1 1907.1,582.1 1940.0,580.1 1972.5,577.2 2004.5,573.4 2035.8,568.5 2066.4,562.5 2096.1,555.4 2124.7,547.1 2152.2,537.4 2178.4,526.3 2203.3,513.6 2226.7,499.3 2248.4,483.2 2268.4,465.1 2286.5,444.9 2302.7,422.4 2316.7,397.5 2328.6,370.0  A 1524.600,1524.600 0.00 0,1 2584.4,492.6 L 2584.4,492.6 2562.4,525.1 2537.9,553.9 2511.0,579.5 2481.7,602.0 2450.4,621.7 2416.9,638.8 2381.6,653.7 2344.6,666.5 2305.9,677.3 2265.8,686.5 2224.3,694.1 2181.7,700.2 2138.0,705.2 2093.4,708.9 2048.0,711.6 2002.0,713.3 1955.6,714.1 1908.8,714.1 1861.8,713.2 1814.8,711.5 1767.8,709.1 1721.2,705.9 1674.9,701.8 1629.1,696.8 1584.1,691.0 1539.8,684.1 1496.6,676.1 1454.5,667.0 1413.7,656.5 1374.3,644.5 1336.5,631.0 1300.4,615.6 1266.2,598.3 1234.1,578.8 1204.2,557.0 1176.6,532.5 1151.5,505.1 1129.1,474.6 1109.5,440.7  Z" style="stroke-width: 2.0;  stroke: rgb(82,82,82); fill: rgb(255,0,191); opacity: 0.167;" />
<path d="M 1487.415,307.788 A 1524.600,1524.600 0.00 0,1 1669.3,281.0 L 1669.3,281.0 1671.7,303.9 1674.7,325.0 1678.3,344.5 1682.5,362.3 1687.2,378.6 1692.4,393.5 1698.1,407.1 1704.2,419.3 1710.7,430.3 1717.6,440.1 1724.8,448.8 1732.3,456.4 1740.0,462.9 1748.0,468.5 1756.2,473.0 1764.5,476.6 1772.9,479.3 1781.4,481.1 1789.9,482.0 1798.5,481.9 1807.1,481.0 1815.6,479.1 1824.0,476.4 1832.2,472.7 1840.4,468.1 1848.3,462.4 1856.0,455.8 1863.4,448.2 1870.5,439.4 1877.3,429.5 1883.7,418.5 1889.7,406.2 1895.3,392.6 1900.4,377.7 1904.9,361.3 1909.0,343.5 1912.4,324.0 1915.3,302.8 1917.4,279.9  A 1524.600,1524.600 0.00 0,1 2236.1,339.1 L 2236.1,339.1 2227.3,364.3 2216.8,387.2 2204.7,408.0 2191.0,426.7 2175.9,443.6 2159.5,458.8 2141.8,472.3 2122.9,484.2 2102.9,494.7 2082.0,503.9 2060.2,511.8 2037.6,518.6 2014.3,524.2 1990.5,528.7 1966.1,532.2 1941.3,534.8 1916.2,536.4 1890.9,537.1 1865.5,536.9 1840.1,535.8 1814.8,533.9 1789.7,531.1 1764.8,527.4 1740.3,522.8 1716.3,517.2 1692.9,510.7 1670.2,503.2 1648.2,494.6 1627.2,484.9 1607.1,474.0 1588.1,461.9 1570.3,448.4 1553.8,433.4 1538.6,417.0 1525.0,398.9 1512.9,379.0 1502.6,357.3 1494.0,333.6 1487.4,307.8  Z" style="stroke-width: 2.0;  stroke: rgb(82,82,82); fill: rgb(255,0,98); opacity: 0.167;" />
<path d="M 820.290,631.850 A 1524.600,1524.600 0.00 0,1 1002.6,500.6 L 1002.6,500.6 1027.3,536.5 1054.8,568.7 1084.8,597.3 1117.3,622.6 1152.1,645.1 1189.0,664.9 1227.9,682.4 1268.6,697.6 1311.1,711.0 1355.1,722.5 1400.4,732.6 1447.0,741.2 1494.8,748.6 1543.4,754.8 1592.9,760.1 1643.1,764.4 1693.7,767.8 1744.8,770.4 1796.1,772.3 1847.4,773.4 1898.7,773.7 1949.9,773.2 2000.6,771.9 2050.9,769.8 2100.6,766.6 2149.5,762.5 2197.5,757.1 2244.4,750.4 2290.2,742.3 2334.6,732.6 2377.5,721.1 2418.9,707.6 2458.5,691.8 2496.2,673.6 2531.9,652.6 2565.5,628.6 2596.7,601.3 2625.5,570.4 2651.7,535.5  A 1524.600,1524.600 0.00 0,1 2804.9,653.4 L 2804.9,653.4 2767.3,692.7 2727.5,727.2 2685.7,757.5 2642.1,783.8 2596.7,806.7 2549.6,826.5 2501.0,843.4 2451.0,857.7 2399.6,869.9 2347.1,880.1 2293.4,888.5 2238.8,895.4 2183.3,900.9 2127.1,905.2 2070.2,908.5 2012.8,910.9 1955.1,912.4 1897.0,913.2 1838.8,913.2 1780.5,912.6 1722.3,911.3 1664.3,909.3 1606.6,906.5 1549.2,902.8 1492.5,898.3 1436.3,892.8 1381.0,886.0 1326.5,878.0 1273.1,868.4 1220.8,857.1 1169.7,843.8 1120.0,828.3 1071.7,810.4 1025.1,789.6 980.2,765.8 937.2,738.4 896.1,707.3 857.1,671.9 820.3,631.9  Z" style="stroke-width: 2.0;  stroke: rgb(82,82,82); fill: rgb(221,0,255); opacity: 0.167;" />
<path d="M 441.597,1107.796 A 1524.600,1524.600 0.00 0,1 513.9,981.3 L 513.9,981.3 585.5,1024.2 656.2,1061.6 726.1,1094.1 795.2,1122.1 863.6,1146.1 931.3,1166.5 998.4,1183.7 1064.9,1198.2 1130.8,1210.3 1196.2,1220.2 1261.2,1228.4 1325.8,1235.0 1390.0,1240.3 1453.9,1244.5 1517.6,1247.7 1581.0,1250.2 1644.3,1252.0 1707.4,1253.2 1770.5,1254.0 1833.6,1254.2 1896.6,1253.9 1959.8,1253.2 2023.1,1251.8 2086.5,1249.8 2150.2,1247.0 2214.1,1243.3 2278.4,1238.5 2343.0,1232.4 2408.1,1224.7 2473.6,1215.3 2539.6,1203.7 2606.2,1189.7 2673.4,1172.9 2741.2,1153.0 2809.8,1129.6 2879.1,1102.1 2949.2,1070.2 3020.3,1033.3 3092.2,990.9  A 1524.600,1524.600 0.00 0,1 3209.4,1218.7 L 3209.4,1218.7 3117.9,1254.5 3029.6,1285.1 2944.3,1311.2 2861.8,1333.2 2782.0,1351.5 2704.7,1366.6 2629.7,1378.8 2556.8,1388.6 2485.9,1396.1 2416.7,1401.8 2349.2,1406.0 2283.1,1408.7 2218.2,1410.4 2154.5,1411.1 2091.6,1411.1 2029.6,1410.4 1968.1,1409.2 1907.0,1407.6 1846.2,1405.5 1785.5,1403.1 1724.7,1400.3 1663.7,1397.0 1602.4,1393.3 1540.4,1389.0 1477.8,1384.0 1414.3,1378.2 1349.8,1371.3 1284.1,1363.3 1217.1,1353.8 1148.6,1342.5 1078.6,1329.3 1006.7,1313.8 932.9,1295.6 857.0,1274.4 779.0,1249.7 698.5,1221.2 615.6,1188.4 530.0,1150.7 441.6,1107.8  Z" style="stroke-width: 2.0;  stroke: rgb(82,82,82); fill: rgb(30,0,255); opacity: 0.167;" />
<path d="M 494.544,2587.521 A 1524.600,1524.600 0.00 0,1 413.5,2434.2 L 413.5,2434.2 505.8,2393.9 594.7,2358.9 680.6,2328.5 763.6,2302.3 843.8,2279.9 921.4,2260.7 996.6,2244.5 1069.7,2230.9 1140.6,2219.5 1209.7,2210.0 1277.1,2202.2 1343.0,2195.7 1407.6,2190.4 1470.9,2186.1 1533.3,2182.6 1594.9,2179.8 1655.9,2177.5 1716.4,2175.6 1776.7,2174.1 1836.8,2173.1 1897.1,2172.3 1957.7,2172.0 2018.7,2172.1 2080.3,2172.7 2142.8,2174.0 2206.3,2176.0 2271.0,2178.9 2337.1,2183.0 2404.7,2188.4 2474.1,2195.4 2545.4,2204.2 2618.9,2215.2 2694.7,2228.7 2772.9,2245.0 2853.9,2264.5 2937.8,2287.7 3024.7,2315.0 3114.9,2346.8 3208.5,2383.6  A 1524.600,1524.600 0.00 0,1 3117.7,2566.9 L 3117.7,2566.9 3041.8,2525.2 2967.3,2489.0 2894.0,2457.8 2822.0,2431.0 2751.0,2408.1 2681.2,2388.8 2612.3,2372.6 2544.3,2359.2 2477.1,2348.2 2410.8,2339.2 2345.1,2332.0 2280.0,2326.3 2215.4,2321.9 2151.3,2318.6 2087.6,2316.2 2024.3,2314.5 1961.2,2313.5 1898.2,2313.1 1835.4,2313.1 1772.7,2313.6 1709.8,2314.5 1646.9,2316.0 1583.8,2318.0 1520.5,2320.7 1456.9,2324.1 1392.9,2328.4 1328.4,2333.8 1263.4,2340.5 1197.8,2348.7 1131.6,2358.8 1064.6,2370.9 996.8,2385.4 928.2,2402.6 858.6,2423.0 788.1,2447.0 716.5,2474.9 643.7,2507.3 569.8,2544.7 494.5,2587.5  Z" style="stroke-width: 2.0;  stroke: rgb(82,82,82); fill: rgb(0,255,64); opacity: 0.167;" />
<path d="M 1580.307,3308.688 A 1524.600,1524.600 0.00 0,1 1412.3,3274.5 L 1412.3,3274.5 1420.2,3249.2 1429.8,3226.0 1441.1,3205.0 1454.0,3185.9 1468.4,3168.6 1484.1,3153.1 1501.1,3139.1 1519.3,3126.6 1538.6,3115.5 1558.9,3105.8 1580.1,3097.2 1602.1,3089.8 1624.8,3083.6 1648.1,3078.4 1672.0,3074.1 1696.3,3070.9 1720.9,3068.5 1745.7,3067.1 1770.7,3066.6 1795.6,3066.9 1820.6,3068.1 1845.4,3070.2 1869.9,3073.2 1894.1,3077.1 1917.8,3081.9 1941.0,3087.8 1963.5,3094.7 1985.3,3102.6 2006.3,3111.7 2026.3,3122.0 2045.3,3133.6 2063.2,3146.6 2079.8,3161.0 2095.1,3177.0 2109.0,3194.6 2121.4,3214.1 2132.1,3235.4 2141.1,3258.7 2148.3,3284.3  A 1524.600,1524.600 0.00 0,1 1963.4,3315.8 L 1963.4,3315.8 1960.3,3292.4 1956.1,3270.8 1950.9,3250.9 1944.9,3232.7 1938.0,3216.0 1930.3,3200.8 1921.9,3187.0 1912.7,3174.5 1903.0,3163.2 1892.6,3153.1 1881.7,3144.2 1870.4,3136.3 1858.6,3129.5 1846.5,3123.7 1834.0,3118.9 1821.3,3115.0 1808.4,3112.1 1795.4,3110.1 1782.2,3108.9 1769.0,3108.7 1755.9,3109.3 1742.7,3110.9 1729.7,3113.3 1716.9,3116.7 1704.3,3121.1 1692.0,3126.4 1679.9,3132.8 1668.3,3140.2 1657.1,3148.7 1646.4,3158.4 1636.2,3169.3 1626.6,3181.5 1617.7,3195.0 1609.4,3209.9 1601.9,3226.3 1595.2,3244.3 1589.3,3264.0 1584.3,3285.4 1580.3,3308.7  Z" style="stroke-width: 2.0;  stroke: rgb(82,82,82); fill: rgb(255,94,0); opacity: 0.167;" />
<path d="M 611.378,845.231 A 1524.600,1524.600 0.00 0,1 719.2,724.7 L 719.2,724.7 764.4,766.1 811.2,802.5 859.5,834.4 909.3,862.1 960.4,886.1 1012.8,906.7 1066.3,924.4 1121.0,939.4 1176.6,952.1 1233.2,962.7 1290.6,971.5 1348.7,978.8 1407.5,984.7 1466.8,989.4 1526.7,993.1 1586.9,995.9 1647.4,997.9 1708.2,999.1 1769.0,999.7 1830.0,999.7 1890.8,999.0 1951.6,997.7 2012.1,995.6 2072.3,992.7 2132.2,989.0 2191.5,984.2 2250.3,978.2 2308.4,970.9 2365.8,962.0 2422.3,951.3 2478.0,938.6 2532.6,923.5 2586.1,905.7 2638.5,885.0 2689.5,861.0 2739.3,833.2 2787.6,801.3 2834.3,764.8 2879.4,723.3  A 1524.600,1524.600 0.00 0,1 2987.4,843.8 L 2987.4,843.8 2930.2,886.7 2872.4,924.3 2814.1,957.0 2755.2,985.3 2695.8,1009.7 2636.0,1030.5 2575.8,1048.2 2515.1,1063.2 2454.1,1075.7 2392.8,1086.1 2331.1,1094.6 2269.2,1101.6 2207.1,1107.2 2144.8,1111.7 2082.2,1115.1 2019.6,1117.7 1956.8,1119.6 1893.9,1120.8 1831.0,1121.4 1768.1,1121.4 1705.2,1120.9 1642.4,1119.8 1579.6,1118.0 1516.9,1115.5 1454.4,1112.1 1392.0,1107.7 1329.9,1102.2 1268.0,1095.3 1206.3,1086.8 1145.0,1076.5 1084.0,1064.0 1023.3,1049.2 963.0,1031.5 903.2,1010.8 843.8,986.5 784.9,958.3 726.5,925.6 668.6,888.1 611.4,845.2  Z" style="stroke-width: 2.0;  stroke: rgb(82,82,82); fill: rgb(128,0,255); opacity: 0.167;" />
<path d="M 311.062,1472.174 A 1524.600,1524.600 0.00 0,1 346.5,1340.0 L 346.5,1340.0 454.8,1372.8 557.7,1401.2 655.7,1425.7 748.9,1446.6 837.6,1464.3 922.2,1479.3 1002.8,1491.7 1079.9,1502.0 1153.7,1510.5 1224.4,1517.3 1292.4,1522.8 1357.9,1527.2 1421.3,1530.6 1482.8,1533.2 1542.7,1535.1 1601.3,1536.6 1659.0,1537.6 1715.9,1538.3 1772.3,1538.7 1828.6,1538.8 1885.1,1538.6 1942.0,1538.1 1999.6,1537.3 2058.3,1536.1 2118.2,1534.3 2179.7,1532.0 2243.1,1528.8 2308.6,1524.7 2376.7,1519.5 2447.4,1512.9 2521.2,1504.7 2598.3,1494.7 2679.0,1482.5 2763.6,1467.9 2852.4,1450.5 2945.7,1429.9 3043.7,1405.8 3146.8,1377.8 3255.2,1345.4  A 1524.600,1524.600 0.00 0,1 3296.5,1508.6 L 3296.5,1508.6 3173.3,1531.6 3057.5,1551.4 2948.6,1568.2 2846.3,1582.4 2750.2,1594.4 2659.8,1604.2 2574.7,1612.3 2494.7,1618.8 2419.2,1624.0 2347.8,1628.0 2280.3,1631.1 2216.1,1633.4 2154.8,1635.0 2096.2,1636.0 2039.7,1636.6 1985.1,1636.9 1931.8,1636.9 1879.5,1636.6 1827.8,1636.2 1776.3,1635.6 1724.5,1634.7 1672.3,1633.7 1619.0,1632.4 1564.3,1630.8 1507.9,1628.8 1449.3,1626.3 1388.1,1623.3 1324.0,1619.4 1256.5,1614.7 1185.3,1609.0 1110.0,1601.9 1030.1,1593.5 945.3,1583.3 855.1,1571.2 759.3,1557.0 657.4,1540.2 549.0,1520.7 433.6,1498.2 311.1,1472.2  Z" style="stroke-width: 2.0;  stroke: rgb(82,82,82); fill: rgb(0,64,255); opacity: 0.167;" />
<path d="M 741.536,2897.296 A 1524.600,1524.600 0.00 0,1 649.9,2800.9 L 649.9,2800.9 700.3,2760.4 751.8,2725.0 804.3,2694.4 857.9,2668.1 912.5,2645.7 968.0,2626.6 1024.4,2610.7 1081.5,2597.5 1139.4,2586.6 1198.0,2577.9 1257.1,2571.0 1316.9,2565.8 1377.1,2561.8 1437.7,2559.1 1498.7,2557.4 1560.0,2556.7 1621.5,2556.7 1683.1,2557.4 1744.9,2558.7 1806.6,2560.7 1868.3,2563.3 1929.9,2566.5 1991.3,2570.4 2052.4,2575.1 2113.1,2580.7 2173.5,2587.3 2233.3,2595.0 2292.6,2604.1 2351.2,2614.7 2409.1,2627.2 2466.2,2641.7 2522.3,2658.5 2577.6,2678.0 2631.7,2700.6 2684.8,2726.5 2736.6,2756.1 2787.1,2790.0 2836.2,2828.5 2883.9,2872.2  A 1524.600,1524.600 0.00 0,1 2774.6,2972.5 L 2774.6,2972.5 2736.7,2930.8 2696.7,2893.9 2654.6,2861.3 2610.6,2832.5 2564.7,2807.2 2517.1,2785.0 2468.0,2765.7 2417.4,2748.8 2365.4,2734.2 2312.2,2721.5 2257.9,2710.5 2202.6,2701.0 2146.5,2692.8 2089.5,2685.8 2032.0,2679.8 1973.9,2674.7 1915.4,2670.5 1856.6,2666.9 1797.6,2664.0 1738.6,2661.9 1679.5,2660.4 1620.6,2659.6 1562.0,2659.5 1503.7,2660.3 1445.8,2662.0 1388.6,2664.8 1332.0,2668.8 1276.1,2674.2 1221.2,2681.1 1167.2,2689.9 1114.3,2700.7 1062.5,2713.7 1012.1,2729.4 963.0,2748.0 915.4,2769.8 869.3,2795.3 824.9,2824.7 782.3,2858.6 741.5,2897.3  Z" style="stroke-width: 2.0;  stroke: rgb(82,82,82); fill: rgb(128,255,0); opacity: 0.167;" />
<path d="M 401.428,2406.960 A 1524.600,1524.600 0.00 0,1 364.4,2313.3 L 364.4,2313.3 454.4,2283.2 541.4,2258.1 625.4,2237.4 706.7,2220.8 785.4,2207.7 861.8,2197.8 936.1,2190.7 1008.4,2186.0 1078.8,2183.5 1147.6,2182.7 1214.9,2183.4 1281.0,2185.5 1345.8,2188.6 1409.7,2192.7 1472.7,2197.4 1535.1,2202.8 1596.9,2208.7 1658.3,2215.1 1719.5,2221.9 1780.6,2229.1 1841.7,2236.6 1902.9,2244.7 1964.4,2253.2 2026.3,2262.4 2088.7,2272.4 2151.8,2283.3 2215.6,2295.2 2280.3,2308.5 2346.0,2323.4 2412.8,2340.1 2480.7,2358.9 2549.9,2380.2 2620.5,2404.3 2692.5,2431.6 2766.1,2462.6 2841.4,2497.6 2918.3,2537.1 2997.1,2581.7 3077.7,2631.9  A 1524.600,1524.600 0.00 0,1 2981.5,2763.6 L 2981.5,2763.6 2914.0,2711.4 2847.0,2664.8 2780.3,2623.3 2714.0,2586.4 2648.1,2553.5 2582.5,2524.2 2517.4,2498.2 2452.7,2475.1 2388.3,2454.4 2324.2,2435.9 2260.5,2419.2 2197.1,2404.1 2134.0,2390.3 2071.1,2377.7 2008.5,2366.1 1946.0,2355.2 1883.6,2345.1 1821.3,2335.5 1759.0,2326.4 1696.7,2317.8 1634.3,2309.6 1571.7,2301.9 1508.9,2294.8 1445.8,2288.3 1382.3,2282.5 1318.4,2277.6 1253.9,2273.7 1188.8,2271.0 1122.9,2269.8 1056.3,2270.3 988.7,2272.7 920.1,2277.4 850.3,2284.8 779.3,2295.2 707.0,2308.9 633.1,2326.5 557.7,2348.4 480.5,2375.0 401.4,2407.0  Z" style="stroke-width: 2.0;  stroke: rgb(82,82,82); fill: rgb(0,255,64); opacity: 0.167;" />
<path d="M 325.700,2188.388 A 1524.600,1524.600 0.00 0,1 307.7,2112.3 L 307.7,2112.3 428.6,2088.1 542.4,2067.3 649.5,2049.6 750.4,2034.7 845.4,2022.2 934.9,2011.8 1019.3,2003.4 1098.9,1996.6 1174.2,1991.3 1245.6,1987.1 1313.3,1984.0 1377.8,1981.7 1439.5,1980.1 1498.7,1979.1 1555.8,1978.6 1611.2,1978.5 1665.3,1978.6 1718.5,1979.0 1771.1,1979.6 1823.5,1980.4 1876.0,1981.4 1929.2,1982.6 1983.3,1984.1 2038.6,1986.0 2095.7,1988.3 2154.9,1991.1 2216.5,1994.5 2280.9,1998.7 2348.5,2003.9 2419.6,2010.3 2494.7,2017.9 2574.1,2027.1 2658.2,2038.1 2747.4,2051.2 2842.0,2066.6 2942.3,2084.6 3048.9,2105.6 3162.0,2129.8 3282.0,2157.7  A 1524.600,1524.600 0.00 0,1 3237.5,2308.0 L 3237.5,2308.0 3129.7,2271.3 3027.1,2239.2 2929.5,2211.2 2836.6,2186.9 2748.2,2166.0 2664.0,2147.9 2583.6,2132.4 2506.8,2119.2 2433.3,2108.0 2362.8,2098.5 2295.1,2090.4 2229.8,2083.6 2166.7,2077.8 2105.5,2072.8 2045.9,2068.5 1987.6,2064.8 1930.3,2061.6 1873.7,2058.7 1817.5,2056.1 1761.5,2053.8 1705.4,2051.8 1648.7,2050.0 1591.3,2048.6 1532.9,2047.5 1473.2,2046.8 1411.7,2046.8 1348.4,2047.4 1282.8,2048.9 1214.6,2051.4 1143.6,2055.1 1069.4,2060.2 991.8,2067.1 910.4,2075.9 825.0,2087.0 735.1,2100.6 640.6,2117.2 541.0,2137.1 436.2,2160.7 325.7,2188.4  Z" style="stroke-width: 2.0;  stroke: rgb(82,82,82); fill: rgb(0,255,157); opacity: 0.167;" />
<path d="M 277.691,1716.457 A 1524.600,1524.600 0.00 0,1 283.8,1640.4 L 283.8,1640.4 421.9,1654.5 550.5,1666.8 670.1,1677.4 781.2,1686.5 884.3,1694.2 980.0,1700.8 1068.7,1706.4 1151.0,1711.1 1227.3,1715.0 1298.2,1718.2 1364.3,1720.8 1425.9,1723.0 1483.7,1724.7 1538.2,1726.2 1589.8,1727.3 1639.1,1728.3 1686.5,1729.1 1732.7,1729.8 1778.2,1730.3 1823.3,1730.8 1868.7,1731.2 1914.9,1731.5 1962.4,1731.7 2011.7,1731.8 2063.3,1731.7 2117.8,1731.4 2175.6,1730.9 2237.3,1730.0 2303.4,1728.8 2374.4,1727.1 2450.8,1724.8 2533.1,1721.9 2621.9,1718.2 2717.7,1713.6 2821.0,1708.0 2932.2,1701.3 3052.0,1693.2 3180.9,1683.7 3319.3,1672.6  A 1524.600,1524.600 0.00 0,1 3324.2,1763.6 L 3324.2,1763.6 3178.6,1766.9 3043.7,1769.6 2918.8,1771.7 2803.4,1773.4 2697.0,1774.7 2598.9,1775.6 2508.6,1776.2 2425.5,1776.6 2349.0,1776.8 2278.5,1776.7 2213.5,1776.6 2153.4,1776.3 2097.6,1775.9 2045.6,1775.5 1996.7,1775.0 1950.4,1774.5 1906.1,1773.9 1863.3,1773.3 1821.3,1772.7 1779.6,1772.1 1737.6,1771.4 1694.8,1770.6 1650.5,1769.8 1604.2,1768.9 1555.3,1767.9 1503.3,1766.7 1447.5,1765.4 1387.4,1763.8 1322.4,1761.9 1252.0,1759.8 1175.5,1757.3 1092.5,1754.3 1002.2,1750.9 904.2,1747.0 797.9,1742.4 682.6,1737.1 557.9,1731.1 423.1,1724.2 277.7,1716.5  Z" style="stroke-width: 2.0;  stroke: rgb(82,82,82); fill: rgb(0,162,255); opacity: 0.167;" />
<path d="M 284.180,1963.385 A 1524.600,1524.600 0.00 0,1 276.9,1867.0 L 276.9,1867.0 417.2,1861.2 547.6,1856.6 668.7,1853.0 781.1,1850.3 885.2,1848.3 981.6,1847.1 1070.8,1846.4 1153.4,1846.2 1229.9,1846.4 1300.8,1846.9 1366.6,1847.7 1427.9,1848.7 1485.3,1849.8 1539.2,1851.1 1590.2,1852.5 1638.8,1854.0 1685.5,1855.5 1731.0,1857.0 1775.6,1858.6 1819.9,1860.3 1864.6,1862.0 1910.0,1863.9 1956.7,1865.9 2005.3,1868.2 2056.2,1870.6 2110.1,1873.4 2167.3,1876.6 2228.6,1880.2 2294.3,1884.3 2365.0,1889.2 2441.3,1894.7 2523.6,1901.1 2612.5,1908.6 2708.6,1917.1 2812.2,1926.8 2924.1,1938.0 3044.6,1950.7 3174.3,1965.2 3313.8,1981.5  A 1524.600,1524.600 0.00 0,1 3304.5,2046.6 L 3304.5,2046.6 3172.3,2025.6 3048.8,2007.2 2933.5,1991.2 2825.8,1977.3 2725.5,1965.3 2631.9,1955.0 2544.7,1946.2 2463.3,1938.7 2387.3,1932.3 2316.2,1926.9 2249.6,1922.4 2187.0,1918.6 2127.9,1915.4 2071.8,1912.6 2018.4,1910.2 1967.0,1908.2 1917.3,1906.4 1868.8,1904.8 1821.0,1903.4 1773.4,1902.1 1725.5,1900.9 1677.0,1899.8 1627.3,1898.8 1575.9,1898.0 1522.4,1897.5 1466.2,1897.1 1407.1,1897.1 1344.3,1897.5 1277.6,1898.3 1206.3,1899.8 1130.1,1901.9 1048.4,1904.9 960.8,1908.9 866.8,1914.1 766.0,1920.5 657.7,1928.5 541.7,1938.1 417.3,1949.7 284.2,1963.4  Z" style="stroke-width: 2.0;  stroke: rgb(82,82,82); fill: rgb(0,255,255); opacity: 0.167;" />
<path d="M 389.524,1221.240 A 1524.600,1524.600 0.00 0,1 423.7,1144.1 L 423.7,1144.1 503.0,1179.4 580.5,1209.5 656.3,1234.8 730.4,1255.7 803.2,1272.7 874.5,1286.4 944.6,1297.0 1013.5,1304.9 1081.5,1310.5 1148.4,1314.1 1214.5,1316.0 1279.9,1316.5 1344.6,1315.7 1408.8,1313.9 1472.4,1311.2 1535.7,1307.8 1598.7,1303.8 1661.4,1299.2 1724.0,1294.2 1786.5,1288.7 1849.0,1282.7 1911.6,1276.2 1974.3,1269.2 2037.2,1261.5 2100.4,1253.0 2163.8,1243.6 2227.7,1233.1 2292.0,1221.3 2356.8,1207.8 2422.1,1192.6 2487.9,1175.2 2554.4,1155.3 2621.6,1132.7 2689.5,1106.8 2758.1,1077.3 2827.5,1043.8 2897.7,1005.7 2968.7,962.5 3040.6,913.9  A 1524.600,1524.600 0.00 0,1 3070.9,957.9 L 3070.9,957.9 2993.2,1006.9 2917.1,1050.4 2842.4,1088.8 2769.0,1122.7 2697.1,1152.6 2626.4,1178.8 2556.8,1201.9 2488.4,1222.1 2421.1,1239.8 2354.7,1255.5 2289.2,1269.3 2224.5,1281.5 2160.5,1292.4 2097.1,1302.3 2034.2,1311.2 1971.8,1319.3 1909.7,1326.8 1847.8,1333.8 1786.0,1340.3 1724.3,1346.4 1662.4,1352.0 1600.4,1357.2 1538.0,1361.9 1475.2,1366.1 1411.8,1369.6 1347.7,1372.3 1282.8,1374.0 1216.9,1374.6 1150.0,1373.8 1081.8,1371.4 1012.3,1367.0 941.3,1360.5 868.6,1351.4 794.1,1339.5 717.7,1324.2 639.2,1305.2 558.4,1282.0 475.3,1254.2 389.5,1221.2  Z" style="stroke-width: 2.0;  stroke: rgb(82,82,82); fill: rgb(30,0,255); opacity: 0.167;" />
<path d="M 1310.450,3243.865 A 1524.600,1524.600 0.00 0,1 1265.9,3228.0 L 1265.9,3228.0 1278.0,3200.1 1292.4,3174.9 1309.0,3152.1 1327.6,3131.7 1348.1,3113.4 1370.3,3097.0 1394.3,3082.5 1419.8,3069.6 1446.7,3058.3 1474.9,3048.5 1504.3,3040.0 1534.7,3032.7 1566.0,3026.6 1598.1,3021.5 1631.0,3017.5 1664.3,3014.5 1698.1,3012.3 1732.2,3011.1 1766.4,3010.7 1800.7,3011.1 1835.0,3012.5 1869.0,3014.6 1902.7,3017.7 1936.0,3021.6 1968.7,3026.6 2000.7,3032.5 2031.8,3039.4 2062.0,3047.5 2091.2,3056.8 2119.1,3067.4 2145.7,3079.5 2170.8,3093.0 2194.3,3108.2 2216.2,3125.1 2236.2,3144.0 2254.2,3164.9 2270.1,3188.1 2283.9,3213.7 2295.2,3241.9  A 1524.600,1524.600 0.00 0,1 2235.0,3261.2 L 2235.0,3261.2 2225.4,3234.0 2213.6,3209.2 2199.7,3186.7 2183.9,3166.2 2166.2,3147.7 2146.8,3131.1 2125.9,3116.1 2103.4,3102.6 2079.6,3090.6 2054.5,3080.0 2028.3,3070.6 2001.1,3062.5 1973.0,3055.4 1944.2,3049.3 1914.7,3044.3 1884.6,3040.2 1854.1,3037.0 1823.4,3034.7 1792.4,3033.2 1761.3,3032.6 1730.3,3032.9 1699.5,3034.1 1668.9,3036.1 1638.7,3039.1 1609.0,3043.0 1579.9,3048.0 1551.6,3054.0 1524.1,3061.2 1497.6,3069.6 1472.2,3079.2 1447.9,3090.3 1425.0,3102.9 1403.4,3117.1 1383.5,3133.0 1365.1,3150.9 1348.5,3170.7 1333.8,3192.7 1321.1,3217.0 1310.4,3243.9  Z" style="stroke-width: 2.0;  stroke: rgb(82,82,82); fill: rgb(255,191,0); opacity: 0.167;" />
<path d="M 288.758,1598.623 A 1524.600,1524.600 0.00 0,1 294.3,1560.7 L 294.3,1560.7 434.2,1582.6 564.3,1602.3 685.1,1619.9 797.1,1635.8 900.8,1649.9 996.8,1662.5 1085.6,1673.8 1167.7,1683.8 1243.7,1692.7 1314.0,1700.7 1379.3,1707.8 1440.0,1714.2 1496.7,1720.0 1550.0,1725.2 1600.2,1730.1 1648.1,1734.5 1694.1,1738.7 1738.8,1742.7 1782.6,1746.6 1826.2,1750.3 1870.1,1754.0 1914.8,1757.7 1960.8,1761.5 2008.8,1765.3 2059.1,1769.1 2112.5,1773.1 2169.4,1777.1 2230.3,1781.2 2295.8,1785.3 2366.5,1789.5 2442.9,1793.7 2525.5,1797.9 2614.9,1802.0 2711.6,1806.0 2816.2,1809.8 2929.3,1813.3 3051.3,1816.6 3182.8,1819.5 3324.4,1821.8  A 1524.600,1524.600 0.00 0,1 3321.8,1891.7 L 3321.8,1891.7 3176.1,1882.7 3041.1,1874.1 2916.2,1865.8 2800.9,1857.9 2694.5,1850.3 2596.6,1843.1 2506.5,1836.3 2423.5,1829.8 2347.3,1823.7 2277.1,1817.9 2212.4,1812.4 2152.6,1807.2 2097.2,1802.3 2045.5,1797.7 1997.0,1793.2 1951.0,1789.0 1907.1,1784.8 1864.7,1780.8 1823.1,1776.8 1781.8,1772.8 1740.2,1768.8 1697.8,1764.6 1653.9,1760.2 1608.0,1755.6 1559.5,1750.7 1507.9,1745.4 1452.5,1739.6 1392.8,1733.2 1328.3,1726.2 1258.3,1718.4 1182.3,1709.9 1099.7,1700.4 1009.9,1689.8 912.4,1678.1 806.5,1665.2 691.8,1650.9 567.7,1635.1 433.5,1617.7 288.8,1598.6  Z" style="stroke-width: 2.0;  stroke: rgb(82,82,82); fill: rgb(0,162,255); opacity: 0.167;" />
<path d="M 1784.468,3324.521 A 1524.600,1524.600 0.00 0,1 1744.9,3323.6 L 1744.9,3323.6 1746.0,3300.8 1747.6,3279.8 1749.7,3260.4 1752.2,3242.6 1755.2,3226.3 1758.5,3211.3 1762.2,3197.7 1766.2,3185.4 1770.5,3174.3 1775.1,3164.4 1780.0,3155.6 1785.1,3147.8 1790.4,3141.1 1795.9,3135.4 1801.6,3130.7 1807.4,3126.9 1813.2,3124.1 1819.2,3122.1 1825.2,3121.1 1831.3,3121.0 1837.4,3121.8 1843.4,3123.4 1849.4,3126.0 1855.4,3129.6 1861.2,3134.0 1867.0,3139.5 1872.6,3146.0 1878.0,3153.5 1883.2,3162.1 1888.3,3171.8 1893.1,3182.7 1897.6,3194.8 1901.9,3208.2 1905.8,3223.0 1909.4,3239.2 1912.7,3256.9 1915.6,3276.2 1918.1,3297.2 1920.2,3319.9  A 1524.600,1524.600 0.00 0,1 1880.7,3322.5 L 1880.7,3322.5 1879.4,3299.9 1877.8,3279.0 1876.0,3259.8 1874.1,3242.1 1871.9,3225.9 1869.6,3211.1 1867.1,3197.7 1864.5,3185.6 1861.8,3174.6 1858.9,3164.9 1856.0,3156.2 1852.9,3148.7 1849.8,3142.2 1846.6,3136.6 1843.3,3132.1 1840.0,3128.5 1836.7,3125.9 1833.3,3124.1 1830.0,3123.3 1826.7,3123.4 1823.4,3124.3 1820.1,3126.2 1816.9,3129.0 1813.7,3132.7 1810.7,3137.4 1807.7,3143.1 1804.8,3149.7 1802.1,3157.4 1799.5,3166.2 1797.1,3176.0 1794.8,3187.1 1792.7,3199.3 1790.8,3212.8 1789.1,3227.7 1787.7,3244.0 1786.5,3261.7 1785.5,3281.0 1784.9,3301.9 1784.5,3324.5  Z" style="stroke-width: 2.0;  stroke: rgb(82,82,82); fill: rgb(255,0,0); opacity: 0.167;" />
</g>
<defs>
<pattern id="hline-sparse" width="10" height="10" patternTransform="rotate(0 0 0)" patternUnits="userSpaceOnUse"><line x1="0" y1="0" x2="10" y2="0" style="stroke:black;stroke-width:2" /></pattern>
<pattern id="hline" width="10" height="10" patternTransform="rotate(0 0 0)" patternUnits="userSpaceOnUse"><line x1="0" y1="0" x2="10" y2="0" style="stroke:black;stroke-width:5" /></pattern>
<pattern id="vline" width="10" height="10" patternTransform="rotate(0 0 0)" patternUnits="userSpaceOnUse"><line x1="0" y1="0" x2="0" y2="10" style="stroke:black;stroke-width:5" /></pattern>
<pattern id="vline-sparse" width="10" height="10" patternTransform="rotate(0 0 0)" patternUnits="userSpaceOnUse"><line x1="0" y1="0" x2="0" y2="10" style="stroke:black;stroke-width:2" /></pattern>
<pattern id="checker" width="10" height="10" patternTransform="rotate(45 0 0)" patternUnits="userSpaceOnUse"><line x1="0" y1="0" x2="10" y2="0" style="stroke:black;stroke-width:2" /><line x1="0" y1="0" x2="0" y2="10" style="stroke:black;stroke-width:2" /></pattern>
<pattern id="checker" width="10" height="10" patternTransform="rotate(45 0 0)" patternUnits="userSpaceOnUse"><line x1="0" y1="0" x2="10" y2="0" style="stroke:black;stroke-width:5" /><line x1="0" y1="0" x2="0" y2="10" style="stroke:black;stroke-width:4" /></pattern>
</defs>
</svg>
